<mxfile host="app.diagrams.net" modified="2024-04-24T03:17:08.046Z" agent="Mozilla/5.0 (Macintosh; Intel Mac OS X 10_15_7) AppleWebKit/537.36 (KHTML, like Gecko) Chrome/123.0.0.0 Safari/537.36" version="22.1.18" etag="BYgE0eizYJXcxZobYLpO" type="github">
  <diagram name="第 1 页" id="hhKYSpQjTlLeHGEdUim7">
    <mxGraphModel>
      <root>
        <mxCell id="0" />
        <mxCell id="1" parent="0" />
      </root>
    </mxGraphModel>
  </diagram>
</mxfile>
